<?xml version="1.0" encoding="UTF-8"?>
<svg width="278px" height="252px" viewBox="0 0 278 252" version="1.1" xmlns="http://www.w3.org/2000/svg" xmlns:xlink="http://www.w3.org/1999/xlink">
    <!-- Generator: Sketch 53.2 (72643) - https://sketchapp.com -->
    <title>Inrupt Hex - Filled</title>
    <desc>Created with Sketch.</desc>
    <defs>
        <linearGradient x1="91.0738965%" y1="21.4612872%" x2="34.0435399%" y2="75.0506928%" id="linearGradient-1">
            <stop stop-color="#31D4F3" offset="0.00791807432%"></stop>
            <stop stop-color="#4BA7F2" offset="50.5331503%"></stop>
            <stop stop-color="#7951FA" offset="100%"></stop>
        </linearGradient>
        <linearGradient x1="91.0784126%" y1="21.4570436%" x2="34.0435399%" y2="75.0506928%" id="linearGradient-2">
            <stop stop-color="#31D4F3" offset="0.00791807432%"></stop>
            <stop stop-color="#4BA7F2" offset="50.5331503%"></stop>
            <stop stop-color="#7951FA" offset="100%"></stop>
        </linearGradient>
    </defs>
    <g id="Inrupt-Hex---Filled" stroke="none" stroke-width="1" fill="none" fill-rule="evenodd">
        <polygon id="Polygon-Copy" stroke="url(#linearGradient-2)" stroke-width="8" fill="url(#linearGradient-1)" stroke-linejoin="round" transform="translate(138.994845, 123.500000) rotate(30.000000) translate(-138.994845, -123.500000) " points="138.994845 11.5 235.98969 67.5 235.98969 179.5 138.994845 235.5 42 179.5 42 67.5"></polygon>
        <g id="inrupt" transform="translate(62.000000, 102.000000)" fill="#FFFFFF" fill-rule="nonzero">
            <polygon id="Shape" points="2.39538153 7.98468239 7.01164658 7.98468239 9.31184739 4.00024683 7.01164658 0.0158112529 2.39538153 0.0158112529 0.0951807229 4.00024683"></polygon>
            <polygon id="Shape" points="1.0311245 35.2274701 1.0311245 11.1785554 8.39176706 11.1785554 8.39176706 35.2274701"></polygon>
            <path d="M36.7080321,35.2274701 L29.3473895,35.2274701 L29.3473895,21.7088494 C29.3473895,20.1277242 29.0459839,18.9735026 28.4431727,18.2461851 C27.8403615,17.5346788 27.0630523,17.17102 26.0795181,17.17102 C25.556024,17.17102 25.0325302,17.2816987 24.5090361,17.487245 C23.9855421,17.7086025 23.4779116,17.9932051 22.9861445,18.3884864 C22.4943776,18.7679565 22.0660642,19.2264827 21.6694779,19.7324428 C21.288755,20.2542142 20.9873494,20.8234192 20.765261,21.4242467 L20.765261,35.2116589 L13.4363454,35.2116589 L13.4363454,11.1785554 L20.0514056,11.1785554 L20.0514056,15.2104247 C20.939759,13.7716007 22.1929719,12.6648131 23.8269076,11.8900617 C25.44498,11.1153103 27.3168674,10.720029 29.4425703,10.720029 C31.0130523,10.720029 32.266265,11.0046316 33.2180723,11.5738367 C34.1698795,12.1430417 34.8995984,12.8703594 35.4230924,13.7716007 C35.9465863,14.6728421 36.2955823,15.6531397 36.4542169,16.7283049 C36.6287148,17.8034701 36.7080321,18.8312015 36.7080321,19.8431215 L36.7080321,35.2274701 Z" id="Shape"></path>
            <path d="M56.8863453,17.4556225 C55.1096385,17.487245 53.5074297,17.7718476 52.0638555,18.3252415 C50.6202811,18.8786353 49.5891566,19.7008204 48.938755,20.7917968 L48.938755,35.2274701 L41.5781124,35.2274701 L41.5781124,11.1785554 L48.3359437,11.1785554 L48.3359437,16.0326098 C49.1608434,14.4198621 50.2236948,13.1391506 51.5244981,12.222098 C52.8253011,11.3050454 54.2212852,10.8307078 55.6807229,10.7990853 C56.0138555,10.7990853 56.2676706,10.7990853 56.4104418,10.7990853 C56.5690763,10.7990853 56.7118474,10.8148965 56.8704819,10.8465191 L56.8704819,17.4556225 L56.8863453,17.4556225 Z M67.2769076,35.6859963 C64.8022089,35.6859963 62.9144579,34.911245 61.6453814,33.3775535 C60.3763052,31.8280509 59.7417671,29.5670417 59.7417671,26.578715 L59.7417671,11.1785554 L67.1024097,11.1785554 L67.1024097,24.9659674 C67.1024097,26.4364139 67.3879518,27.5590127 67.9748997,28.333764 C68.5618474,29.1085155 69.3867469,29.5037968 70.4495984,29.5037968 C71.4331326,29.5037968 72.3849398,29.2508167 73.30502,28.7290454 C74.2251003,28.207274 75.0341366,27.3060326 75.7479919,26.0253212 L75.7479919,11.1785554 L83.1086345,11.1785554 L83.1086345,26.9898077 C83.1086345,27.7171252 83.2196787,28.2388966 83.4576305,28.5234991 C83.6797189,28.8081016 84.0921687,28.9820254 84.6791165,29.0452703 L84.6791165,35.2274701 C83.9811245,35.3855826 83.3783132,35.4804502 82.8865461,35.5278838 C82.3947792,35.5753175 81.9506024,35.5911289 81.5540161,35.5911289 C78.9206827,35.5911289 77.4136547,34.5633975 77.0487952,32.5237459 L76.906024,31.0532994 C75.7955822,32.6344246 74.4313253,33.8044574 72.7973895,34.5633975 C71.1317269,35.3223376 69.2915663,35.6859963 67.2769076,35.6859963 Z M104.048394,35.6859963 C102.208233,35.6859963 100.621888,35.3065262 99.273494,34.5475861 C97.9251003,33.7886462 96.8781124,32.713481 96.1483935,31.3379021 L96.1483935,44.9988239 L88.787751,44.9988239 L88.787751,11.1785554 L95.1807229,11.1785554 L95.1807229,15.0681234 C96.0690763,13.6925445 97.1795181,12.6173793 98.5120482,11.8584392 C99.8445784,11.0994991 101.430924,10.720029 103.271084,10.720029 C104.889157,10.720029 106.396185,11.0362541 107.760442,11.6845154 C109.124699,12.3327768 110.298594,13.2023957 111.297992,14.3249946 C112.29739,15.4475935 113.074699,16.7599274 113.645783,18.2619963 C114.216867,19.7798765 114.50241,21.4084355 114.50241,23.1476733 C114.50241,24.950156 114.248594,26.6103376 113.7251,28.1440291 C113.201606,29.6777205 112.487751,30.9900544 111.567671,32.1126534 C110.64759,33.2352522 109.553012,34.1048711 108.252209,34.7531324 C106.951406,35.3697714 105.555422,35.6859963 104.048394,35.6859963 Z M101.573695,29.5037968 C102.366867,29.5037968 103.096586,29.329873 103.762851,28.9820254 C104.429116,28.6341779 105.000201,28.1598403 105.491968,27.5906353 C105.983735,27.0056189 106.364458,26.3257349 106.618273,25.5509836 C106.872088,24.7762323 107.01486,23.9540472 107.01486,23.1002395 C107.01486,22.2148094 106.872088,21.3926243 106.570683,20.6494954 C106.28514,19.9063667 105.888554,19.2581053 105.380924,18.7047115 C104.873293,18.1513175 104.254619,17.7244138 103.540763,17.424 C102.826908,17.1235862 102.049598,16.9654737 101.224699,16.9654737 C100.209438,16.9654737 99.2417671,17.2658875 98.3058232,17.8667151 C97.3698795,18.4675426 96.656024,19.2581053 96.1642571,20.2700254 L96.1642571,25.2189473 C96.656024,26.4364139 97.4016065,27.4641451 98.401004,28.2863302 C99.3686747,29.0927041 100.431526,29.5037968 101.573695,29.5037968 Z M133.522691,33.9467585 C132.50743,34.3736624 131.349398,34.7689438 130.048594,35.1326025 C128.747791,35.4962614 127.431125,35.6859963 126.114458,35.6859963 C125.194378,35.6859963 124.321888,35.5753175 123.512851,35.3381488 C122.703815,35.1167913 121.98996,34.7373212 121.371285,34.2313612 C120.75261,33.725401 120.276707,33.0613285 119.927711,32.2391434 C119.578715,31.4169583 119.404217,30.4208494 119.404217,29.2666279 L119.404217,16.7124936 L116.326707,16.7124936 L116.326707,11.1785554 L119.404217,11.1785554 L119.404217,3.52590926 L126.76486,3.52590926 L126.76486,11.1785554 L131.68253,11.1785554 L131.68253,16.7283049 L126.76486,16.7283049 L126.76486,26.7684502 C126.76486,27.5590127 126.971084,28.1440291 127.367671,28.4918765 C127.764257,28.8397242 128.271888,29.0136479 128.890562,29.0136479 C129.445783,29.0136479 130.016867,28.9187804 130.587952,28.7448566 C131.1749,28.5551215 131.68253,28.3653866 132.110843,28.1440291 L133.522691,33.9467585 Z" id="Shape"></path>
            <path d="M136.298795,27.891049 C135.63253,27.891049 135.077309,28.4286316 135.077309,29.1085155 C135.077309,29.7883993 135.616667,30.3259819 136.298795,30.3259819 C136.980924,30.3259819 137.520281,29.7883993 137.520281,29.1085155 C137.520281,28.4286316 136.96506,27.891049 136.298795,27.891049 Z M136.298795,29.5037968 C136.076707,29.5037968 135.902209,29.329873 135.902209,29.1085155 C135.902209,28.887158 136.076707,28.7132341 136.298795,28.7132341 C136.520884,28.7132341 136.695381,28.887158 136.695381,29.1085155 C136.695381,29.329873 136.520884,29.5037968 136.298795,29.5037968 Z M135.077309,18.5149764 L134.617269,17.5346788 L135.235944,16.6492486 L136.314659,16.7283049 L136.774699,17.7086025 L136.156024,18.5940326 L135.077309,18.5149764 Z M142.897992,22.246432 L141.026104,22.8472596 L140.613655,24.7762323 L142.073092,26.0885662 L143.94498,25.4877386 L144.35743,23.5587659 L142.897992,22.246432 Z M143.246988,24.8552885 L142.279317,25.1715136 L141.517871,24.4916298 L141.724096,23.495521 L142.691767,23.1792959 L143.453213,23.8591796 L143.246988,24.8552885 Z M146.261044,30.8161307 L144.547791,31.3695245 L144.167068,33.1245734 L145.515462,34.3262286 L147.228715,33.7728348 L147.609438,32.0177858 L146.261044,30.8161307 Z M146.51486,33.1403848 L145.705823,33.4091761 L145.071285,32.8399709 L145.245783,32.0177858 L146.054819,31.7489945 L146.689357,32.3181997 L146.51486,33.1403848 Z M153.63755,19.1632378 L150.004819,20.3332703 L149.211647,24.064726 L152.051205,26.6103376 L155.683936,25.4403049 L156.477108,21.7088494 L153.63755,19.1632378 Z M154.97008,24.7920435 L152.241566,25.6774738 L150.115863,23.7643121 L150.718675,20.9657205 L153.447189,20.0802904 L155.572892,21.9934519 L154.97008,24.7920435 Z M148.164659,15.542461 L145.896185,15.0681234 L144.341566,16.7915499 L145.055422,18.989314 L147.323896,19.4636515 L148.878514,17.740225 L148.164659,15.542461 Z M147.02249,18.546599 L145.68996,18.2619963 L145.261647,16.9654737 L146.181727,15.9535535 L147.514257,16.2381561 L147.94257,17.5346788 L147.02249,18.546599 Z M142.041365,11.1627441 L140.486747,11.3366679 L139.868072,12.7596806 L140.788153,14.0087695 L142.342771,13.8348457 L142.961446,12.411833 L142.041365,11.1627441 Z M141.78755,13.0600944 L141.184739,13.1233394 L140.81988,12.6331906 L141.057831,12.0797967 L141.660643,12.0165517 L142.025502,12.5067005 L141.78755,13.0600944 Z M139.519076,4.2057931 L138.012048,4.60107441 L137.615462,6.10314338 L138.725904,7.20993103 L140.232932,6.81464974 L140.629518,5.31258077 L139.519076,4.2057931 Z M139.550803,6.13476589 L138.963855,6.29287841 L138.535542,5.86597459 L138.694177,5.28095826 L139.281125,5.12284574 L139.709438,5.54974954 L139.550803,6.13476589 Z M155.683936,2.65629038 L151.210442,2.65629038 L148.973695,6.51423593 L151.210442,10.3721815 L155.683936,10.3721815 L157.920683,6.51423593 L155.683936,2.65629038 Z M155.208032,9.54999637 L151.686345,9.54999637 L149.925502,6.51423593 L151.686345,3.4784755 L155.208032,3.4784755 L156.968875,6.51423593 L155.208032,9.54999637 Z" id="Shape"></path>
        </g>
    </g>
</svg>