<?xml version="1.0" encoding="UTF-8"?><svg id="Layer_1" xmlns="http://www.w3.org/2000/svg" xmlns:xlink="http://www.w3.org/1999/xlink" viewBox="0 0 291 144.84"><defs><style>.cls-1{fill:url(#linear-gradient);}.cls-2{fill:#7f3fff;}.cls-3{fill:#0d6796;}.cls-4{stroke:url(#linear-gradient-10);}.cls-4,.cls-5,.cls-6,.cls-7,.cls-8,.cls-9,.cls-10,.cls-11,.cls-12{fill:none;stroke-miterlimit:10;stroke-width:1.32px;}.cls-5{stroke:url(#linear-gradient-3);}.cls-6{stroke:url(#linear-gradient-2);}.cls-7{stroke:url(#linear-gradient-4);}.cls-8{stroke:url(#linear-gradient-7);}.cls-9{stroke:url(#linear-gradient-6);}.cls-10{stroke:url(#linear-gradient-5);}.cls-11{stroke:url(#linear-gradient-9);}.cls-12{stroke:url(#linear-gradient-8);}</style><linearGradient id="linear-gradient" x1="125.84" y1="36.81" x2="176.73" y2="36.81" gradientTransform="matrix(1, 0, 0, 1, 0, 0)" gradientUnits="userSpaceOnUse"><stop offset="0" stop-color="#2a88af"/><stop offset=".1" stop-color="#2b8eb4"/><stop offset=".23" stop-color="#31a1c4"/><stop offset=".39" stop-color="#39c0dd"/><stop offset=".49" stop-color="#40d6f0"/><stop offset="1" stop-color="#80e3f5"/></linearGradient><linearGradient id="linear-gradient-2" x1="184.71" y1="26.95" x2="191.05" y2="26.95" gradientTransform="matrix(1, 0, 0, 1, 0, 0)" gradientUnits="userSpaceOnUse"><stop offset="0" stop-color="#1ad5ea"/><stop offset=".1" stop-color="#1dd4ea"/><stop offset=".6" stop-color="#2dd3ed"/><stop offset="1" stop-color="#33d3ef"/></linearGradient><linearGradient id="linear-gradient-3" x1="184.74" y1="36.01" x2="190.15" y2="36.01" xlink:href="#linear-gradient-2"/><linearGradient id="linear-gradient-4" x1="178.09" y1="26.5" x2="181.31" y2="26.5" xlink:href="#linear-gradient-2"/><linearGradient id="linear-gradient-5" x1="176.78" y1="39.47" x2="180.03" y2="39.47" xlink:href="#linear-gradient-2"/><linearGradient id="linear-gradient-6" x1="182.14" y1="41.4" x2="185.28" y2="41.4" xlink:href="#linear-gradient-2"/><linearGradient id="linear-gradient-7" x1="179.83" y1="36.64" x2="183.26" y2="36.64" xlink:href="#linear-gradient-2"/><linearGradient id="linear-gradient-8" x1="182.28" y1="32.66" x2="185.74" y2="32.66" xlink:href="#linear-gradient-2"/><linearGradient id="linear-gradient-9" x1="179.43" y1="30.32" x2="182.4" y2="30.32" xlink:href="#linear-gradient-2"/><linearGradient id="linear-gradient-10" x1="176.76" y1="33.19" x2="179.2" y2="33.19" xlink:href="#linear-gradient-2"/></defs><g><polygon class="cls-2" points="104.16 27.77 106.71 27.77 107.98 25.56 106.71 23.35 104.16 23.35 102.88 25.56 104.16 27.77"/><path class="cls-3" d="M103.4,42.9v-13.36h4.07v13.36h-4.07Z"/><path class="cls-3" d="M123.14,42.9h-4.07v-7.51c0-.88-.17-1.52-.5-1.92-.33-.4-.77-.6-1.31-.6-.29,0-.58,.06-.86,.18-.29,.12-.57,.28-.84,.5-.27,.21-.51,.46-.73,.75-.21,.29-.38,.6-.5,.94v7.66h-4.07v-13.36h3.66v2.24c.49-.8,1.19-1.41,2.09-1.84,.9-.43,1.93-.65,3.1-.65,.87,0,1.56,.16,2.09,.47,.53,.31,.93,.72,1.22,1.22,.29,.5,.48,1.05,.57,1.64,.09,.59,.14,1.17,.14,1.73v8.55Z"/><path class="cls-1" d="M134.31,33.03c-.98,.02-1.87,.18-2.67,.48-.8,.31-1.37,.76-1.73,1.37v8.01h-4.07v-13.36h3.74v2.7c.46-.9,1.05-1.6,1.77-2.11,.72-.51,1.49-.77,2.3-.79h.41c.08,0,.17,0,.25,.03v3.66Zm5.75,10.13c-1.37,0-2.41-.43-3.12-1.28-.7-.86-1.06-2.12-1.06-3.78v-8.55h4.07v7.66c0,.81,.16,1.44,.48,1.87,.32,.43,.78,.65,1.37,.65,.54,0,1.07-.14,1.58-.43,.51-.29,.96-.79,1.35-1.5v-8.24h4.07v8.78c0,.41,.06,.69,.19,.85,.13,.16,.35,.26,.67,.29v3.43c-.39,.08-.72,.14-.99,.17-.27,.03-.52,.04-.74,.04-1.46,0-2.29-.57-2.49-1.7l-.08-.81c-.61,.88-1.37,1.53-2.28,1.95-.91,.42-1.92,.62-3.04,.62Zm20.35,0c-1.02,0-1.9-.21-2.65-.64-.75-.42-1.32-1.02-1.73-1.78v7.58h-4.07V29.54h3.54v2.16c.49-.76,1.11-1.36,1.84-1.78,.74-.42,1.62-.64,2.63-.64,.9,0,1.73,.18,2.48,.53,.75,.36,1.41,.84,1.96,1.46,.55,.62,.98,1.35,1.3,2.19,.31,.84,.47,1.74,.47,2.71s-.14,1.93-.43,2.77c-.29,.85-.69,1.58-1.2,2.2-.51,.62-1.12,1.11-1.83,1.46-.71,.36-1.48,.53-2.32,.53Zm-1.37-3.43c.44,0,.84-.1,1.21-.29,.36-.19,.68-.45,.95-.78,.27-.32,.48-.7,.62-1.13,.14-.43,.22-.89,.22-1.36s-.08-.95-.24-1.36c-.16-.42-.38-.78-.66-1.08-.28-.31-.62-.54-1.02-.71-.4-.17-.83-.25-1.28-.25-.56,0-1.1,.17-1.62,.5-.52,.33-.91,.78-1.18,1.34v2.75c.27,.68,.68,1.25,1.23,1.7,.55,.46,1.14,.69,1.77,.69Zm17.68,2.47c-.56,.24-1.2,.46-1.92,.66-.72,.2-1.45,.31-2.18,.31-.51,0-.99-.06-1.44-.19-.45-.13-.84-.33-1.18-.61-.34-.28-.61-.65-.8-1.11-.2-.46-.29-1.01-.29-1.65v-6.97h-1.7v-3.08h1.7v-4.25h4.07v4.25h2.72v3.08h-2.72v5.57c0,.44,.11,.76,.33,.95,.22,.2,.5,.29,.84,.29,.31,0,.62-.05,.94-.15,.32-.1,.6-.21,.84-.33l.79,3.23Z"/><polygon class="cls-6" points="189.09 24.87 186.67 24.87 185.47 26.95 186.67 29.04 189.09 29.04 190.29 26.95 189.09 24.87"/><polygon class="cls-5" points="187.97 34.05 186.01 34.57 185.48 36.54 186.92 37.98 188.88 37.45 189.41 35.49 187.97 34.05"/><polygon class="cls-7" points="179.86 25.56 178.97 25.89 178.81 26.83 179.54 27.44 180.44 27.11 180.6 26.17 179.86 25.56"/><polygon class="cls-10" points="178.84 38.72 177.97 38.72 177.54 39.47 177.97 40.22 178.84 40.22 179.27 39.47 178.84 38.72"/><polygon class="cls-9" points="183.48 40.57 182.87 41.18 183.1 42.01 183.93 42.24 184.54 41.63 184.32 40.79 183.48 40.57"/><polygon class="cls-8" points="181.72 35.58 180.71 35.97 180.55 37.03 181.38 37.71 182.39 37.32 182.55 36.26 181.72 35.58"/><polygon class="cls-12" points="184.83 31.96 183.82 31.6 183 32.29 183.19 33.35 184.2 33.71 185.02 33.02 184.83 31.96"/><polygon class="cls-11" points="181.21 29.65 180.48 29.73 180.19 30.4 180.62 30.99 181.35 30.91 181.64 30.24 181.21 29.65"/><polygon class="cls-4" points="178.54 32.86 177.98 32.54 177.42 32.86 177.42 33.51 177.98 33.84 178.54 33.51 178.54 32.86"/></g><g><g><path class="cls-2" d="M25.06,87.85V54.92h14.05c1.58,0,3.02,.32,4.34,.95,1.31,.63,2.45,1.48,3.41,2.55s1.7,2.26,2.23,3.59c.53,1.33,.79,2.69,.79,4.08,0,1.89-.44,3.68-1.32,5.38-.88,1.7-2.1,3.08-3.66,4.15-1.56,1.07-3.41,1.6-5.54,1.6h-6.68v10.62h-7.6Zm7.6-17.25h6.21c.59,0,1.13-.17,1.62-.51,.49-.34,.9-.85,1.21-1.53,.31-.68,.46-1.51,.46-2.5s-.18-1.86-.53-2.53c-.36-.67-.8-1.15-1.34-1.46-.54-.31-1.11-.46-1.69-.46h-5.94v9Z"/><path class="cls-2" d="M64.42,88.31c-2.07,0-3.92-.34-5.54-1-1.62-.67-2.99-1.58-4.1-2.74-1.11-1.16-1.96-2.48-2.53-3.97-.57-1.49-.86-3.06-.86-4.71s.29-3.26,.86-4.75c.57-1.49,1.41-2.82,2.53-3.97,1.11-1.16,2.48-2.07,4.1-2.74,1.62-.67,3.47-1.01,5.54-1.01s3.91,.33,5.52,1.01c1.61,.67,2.97,1.58,4.08,2.74,1.11,1.16,1.96,2.48,2.55,3.97s.88,3.08,.88,4.75-.29,3.21-.88,4.71c-.59,1.49-1.44,2.82-2.55,3.97-1.11,1.16-2.47,2.07-4.08,2.74-1.61,.67-3.45,1-5.52,1Zm-5.43-12.43c0,1.23,.24,2.31,.72,3.24,.48,.93,1.12,1.65,1.92,2.16,.8,.51,1.73,.76,2.78,.76s1.94-.26,2.76-.79c.82-.53,1.46-1.25,1.92-2.18,.46-.93,.7-2,.7-3.2s-.23-2.31-.7-3.24c-.46-.93-1.11-1.65-1.92-2.16-.82-.51-1.74-.77-2.76-.77s-1.98,.25-2.78,.77c-.8,.51-1.45,1.23-1.92,2.16-.48,.93-.72,2.01-.72,3.24Z"/><path class="cls-2" d="M79.72,75.84c0-2.34,.46-4.45,1.39-6.33,.93-1.87,2.2-3.36,3.8-4.46,1.61-1.1,3.46-1.64,5.56-1.64,1.7,0,3.25,.41,4.64,1.23,1.39,.82,2.44,1.89,3.15,3.22v-13.86h7.42v25.59c0,.74,.12,1.26,.37,1.55,.25,.29,.65,.47,1.21,.53v6.17c-1.3,.25-2.35,.37-3.15,.37-1.27,0-2.3-.28-3.08-.83s-1.27-1.33-1.46-2.32l-.14-1.25c-.87,1.51-2.04,2.64-3.52,3.38-1.48,.74-3.04,1.11-4.68,1.11s-3.21-.31-4.61-.94c-1.41-.62-2.63-1.5-3.66-2.63-1.04-1.13-1.83-2.45-2.39-3.97-.56-1.52-.83-3.17-.83-4.93Zm18.59,2.93v-4.95c-.31-.81-.75-1.52-1.32-2.12-.57-.6-1.22-1.08-1.95-1.44-.73-.36-1.46-.54-2.2-.54-.8,0-1.54,.17-2.2,.5-.67,.33-1.25,.79-1.74,1.37-.5,.59-.87,1.25-1.14,2-.26,.75-.39,1.54-.39,2.38s.15,1.67,.44,2.41,.7,1.38,1.23,1.93c.52,.56,1.14,.98,1.85,1.28,.71,.3,1.48,.45,2.32,.45,.53,0,1.04-.08,1.53-.25,.49-.17,.97-.38,1.41-.65,.45-.27,.86-.62,1.23-1.04,.37-.42,.68-.87,.93-1.35Z"/><path class="cls-2" d="M131.79,64.61c-.09-.15-.42-.39-.97-.72-.56-.32-1.25-.67-2.09-1.04-.83-.37-1.75-.7-2.74-.97s-1.98-.42-2.97-.42c-1.3,0-2.3,.22-3.01,.67-.71,.44-1.07,1.13-1.07,2.05,0,.74,.27,1.32,.81,1.75,.54,.43,1.32,.81,2.34,1.13,1.02,.32,2.27,.7,3.76,1.13,2.1,.55,3.92,1.22,5.47,2,1.55,.78,2.73,1.79,3.55,3.02,.82,1.23,1.23,2.86,1.23,4.88,0,1.84-.34,3.4-1.02,4.67s-1.6,2.3-2.76,3.08-2.48,1.35-3.96,1.7c-1.48,.35-3.01,.53-4.59,.53s-3.25-.16-4.94-.49c-1.69-.33-3.3-.79-4.85-1.39-1.55-.6-2.97-1.34-4.27-2.2l3.34-6.63c.12,.16,.53,.44,1.21,.86,.68,.42,1.52,.85,2.53,1.3,1,.45,2.12,.84,3.36,1.18,1.24,.34,2.49,.51,3.76,.51,1.36,0,2.37-.21,3.04-.63,.66-.42,1-1.01,1-1.77,0-.83-.35-1.48-1.04-1.94-.7-.46-1.64-.88-2.83-1.24-1.19-.37-2.56-.78-4.1-1.25-2.01-.61-3.67-1.31-4.98-2.08-1.31-.77-2.29-1.71-2.92-2.81-.63-1.11-.95-2.49-.95-4.15,0-2.31,.55-4.25,1.65-5.83,1.1-1.58,2.57-2.78,4.43-3.6s3.88-1.22,6.07-1.22c1.54,0,3.04,.18,4.47,.56s2.78,.83,4.03,1.39c1.25,.56,2.37,1.11,3.36,1.67l-3.34,6.31Z"/><path class="cls-2" d="M155.12,88.31c-1.82,0-3.42-.39-4.78-1.17s-2.43-1.83-3.2-3.18v13.75h-7.42V63.78h6.45v3.97c.9-1.37,2.02-2.44,3.38-3.2s2.95-1.14,4.78-1.14c1.64,0,3.14,.32,4.52,.96,1.38,.64,2.57,1.52,3.59,2.65,1.02,1.13,1.81,2.44,2.36,3.93,.56,1.49,.83,3.11,.83,4.84,0,2.38-.45,4.51-1.34,6.4-.9,1.89-2.14,3.38-3.73,4.48-1.59,1.1-3.41,1.64-5.45,1.64Zm-2.5-6.26c.8,0,1.54-.17,2.2-.52s1.24-.8,1.74-1.37c.49-.57,.87-1.24,1.14-2,.26-.76,.39-1.57,.39-2.41s-.15-1.67-.44-2.39c-.29-.72-.7-1.36-1.23-1.91-.53-.56-1.14-.98-1.85-1.28-.71-.3-1.48-.45-2.32-.45-.5,0-1,.08-1.51,.22s-.99,.36-1.44,.64-.86,.61-1.23,1-.68,.83-.93,1.33v4.93c.34,.81,.79,1.52,1.34,2.15s1.19,1.13,1.9,1.5c.71,.37,1.45,.56,2.23,.56Z"/><path class="cls-2" d="M167.87,80.68c0-1.58,.45-2.97,1.34-4.16,.9-1.19,2.13-2.12,3.71-2.81,1.58-.69,3.38-1.03,5.42-1.03,.99,0,1.96,.08,2.92,.25s1.79,.41,2.5,.72v-1.06c0-1.29-.4-2.27-1.21-2.96-.8-.69-2.03-1.03-3.66-1.03-1.36,0-2.64,.23-3.83,.7-1.19,.46-2.45,1.13-3.78,1.99l-2.23-4.73c1.61-1.05,3.28-1.84,5.03-2.37,1.75-.53,3.59-.79,5.54-.79,3.65,0,6.48,.86,8.51,2.57,2.02,1.71,3.04,4.19,3.04,7.43v6.23c0,.73,.12,1.24,.35,1.52,.23,.29,.64,.46,1.23,.52v6.17c-.62,.12-1.2,.22-1.74,.28-.54,.06-1.01,.09-1.41,.09-1.39,0-2.45-.28-3.18-.83s-1.18-1.31-1.37-2.27l-.14-1.07c-1.08,1.39-2.37,2.45-3.87,3.18-1.5,.73-3.07,1.09-4.71,1.09s-3.05-.34-4.33-1c-1.28-.67-2.29-1.58-3.04-2.74-.74-1.16-1.11-2.45-1.11-3.88Zm14.74,.87c.34-.27,.62-.57,.83-.89,.22-.33,.32-.64,.32-.94v-2.1c-.62-.24-1.31-.42-2.06-.56-.76-.13-1.46-.2-2.11-.2-1.36,0-2.49,.29-3.38,.87s-1.34,1.35-1.34,2.3c0,.54,.15,1.03,.46,1.47,.31,.45,.73,.8,1.28,1.07,.54,.27,1.18,.4,1.92,.4s1.48-.13,2.23-.4c.74-.27,1.36-.61,1.85-1.03Z"/><path class="cls-2" d="M208.21,88.31c-2.07,0-3.91-.34-5.52-1-1.61-.67-2.98-1.58-4.1-2.74-1.13-1.16-1.99-2.48-2.57-3.97-.59-1.49-.88-3.08-.88-4.75,0-2.19,.52-4.23,1.55-6.12,1.04-1.89,2.53-3.41,4.47-4.57,1.95-1.16,4.3-1.74,7.05-1.74s5.14,.6,7.07,1.79c1.93,1.19,3.38,2.74,4.33,4.66l-7.23,2.18c-.46-.74-1.06-1.31-1.79-1.72-.73-.4-1.54-.6-2.43-.6-1.02,0-1.94,.25-2.76,.77-.82,.51-1.47,1.21-1.95,2.12s-.72,1.98-.72,3.24,.25,2.31,.74,3.24c.49,.93,1.14,1.66,1.95,2.18,.8,.52,1.72,.79,2.74,.79,.62,0,1.2-.1,1.74-.3,.54-.2,1.04-.49,1.48-.86s.8-.79,1.04-1.25l7.23,2.23c-.59,1.24-1.43,2.34-2.53,3.32-1.1,.97-2.39,1.74-3.87,2.29-1.48,.56-3.17,.83-5.05,.83Z"/><path class="cls-2" d="M234.41,88.31c-2.07,0-3.91-.33-5.52-.99-1.61-.66-2.98-1.55-4.1-2.68-1.13-1.13-1.99-2.44-2.57-3.92-.59-1.48-.88-3.03-.88-4.65,0-2.31,.52-4.41,1.55-6.31,1.04-1.9,2.53-3.43,4.47-4.6,1.95-1.17,4.3-1.75,7.05-1.75s5.09,.58,7.02,1.73,3.41,2.67,4.43,4.54c1.02,1.87,1.53,3.9,1.53,6.09,0,.43-.02,.84-.07,1.26-.05,.41-.08,.77-.12,1.07h-17.99c.09,1.05,.39,1.94,.9,2.66,.51,.72,1.17,1.27,1.97,1.64,.8,.38,1.65,.56,2.55,.56,1.11,0,2.16-.26,3.13-.79,.97-.52,1.65-1.24,2.02-2.13l6.31,1.76c-.62,1.27-1.49,2.39-2.62,3.36-1.13,.97-2.46,1.74-3.99,2.29s-3.22,.83-5.08,.83Zm-5.38-14.75h10.57c-.12-.97-.42-1.82-.88-2.54-.46-.72-1.08-1.28-1.86-1.68s-1.62-.6-2.55-.6-1.82,.2-2.57,.6c-.76,.4-1.37,.96-1.83,1.68-.46,.72-.76,1.57-.88,2.54Z"/><path class="cls-2" d="M260.09,88.31c-2.07,0-4.1-.34-6.07-1.02-1.98-.68-3.65-1.68-5.01-3.01l2.55-4.68c1.48,1.08,2.93,1.9,4.33,2.46,1.41,.56,2.73,.83,3.96,.83,.96,0,1.7-.15,2.23-.44,.52-.29,.79-.74,.79-1.36,0-.46-.16-.81-.46-1.07-.31-.26-.78-.49-1.41-.71-.63-.21-1.41-.44-2.34-.68-1.85-.61-3.4-1.2-4.64-1.78-1.24-.58-2.16-1.29-2.78-2.12-.62-.84-.93-1.93-.93-3.27,0-1.61,.41-3.02,1.23-4.23,.82-1.2,1.99-2.14,3.5-2.81,1.51-.67,3.32-1.01,5.42-1.01,1.67,0,3.3,.26,4.89,.79,1.59,.53,3.08,1.41,4.47,2.64l-2.88,4.64c-1.39-.96-2.63-1.65-3.71-2.09-1.08-.43-2.13-.65-3.15-.65-.53,0-1,.06-1.44,.18-.43,.12-.78,.33-1.04,.61-.26,.29-.39,.66-.39,1.12s.13,.82,.39,1.09c.26,.27,.68,.51,1.25,.71,.57,.2,1.29,.43,2.16,.71,2.01,.58,3.68,1.16,5.01,1.75,1.33,.59,2.33,1.32,2.99,2.18,.66,.87,1,2.01,1,3.44,0,2.43-.89,4.33-2.67,5.71-1.78,1.38-4.2,2.07-7.26,2.07Z"/></g><g><path class="cls-3" d="M70.85,116.54v-9.6h3.58c1.05,0,1.94,.21,2.64,.64,.71,.43,1.24,1,1.6,1.73s.54,1.53,.54,2.41c0,.97-.2,1.82-.59,2.54-.4,.72-.95,1.28-1.67,1.68-.72,.4-1.56,.59-2.52,.59h-3.58Zm6.11-4.81c0-.56-.1-1.05-.3-1.48s-.49-.76-.87-1c-.38-.24-.83-.36-1.37-.36h-1.36v5.7h1.36c.54,0,1-.12,1.37-.37,.37-.25,.66-.59,.86-1.03,.2-.44,.3-.93,.3-1.47Z"/><path class="cls-3" d="M87.65,114.59v1.95h-6.74v-9.6h6.62v1.95h-4.41v1.87h3.78v1.8h-3.78v2.04h4.53Z"/><path class="cls-3" d="M90.78,106.94l2.26,7,2.23-7h2.34l-3.49,9.6h-2.18l-3.51-9.6h2.35Z"/><path class="cls-3" d="M105.62,114.59v1.95h-6.74v-9.6h6.62v1.95h-4.41v1.87h3.78v1.8h-3.78v2.04h4.53Z"/><path class="cls-3" d="M107.35,116.54v-9.6h2.22v7.65h4.65v1.95h-6.87Z"/><path class="cls-3" d="M119.66,116.61c-.72,0-1.37-.14-1.95-.41-.58-.27-1.08-.64-1.5-1.11-.42-.46-.74-.99-.97-1.57-.23-.58-.34-1.18-.34-1.8s.12-1.25,.36-1.82c.24-.58,.57-1.09,1-1.55,.43-.46,.94-.81,1.52-1.08,.59-.26,1.23-.39,1.92-.39s1.36,.14,1.94,.41c.58,.28,1.08,.65,1.5,1.12s.74,.99,.97,1.57,.34,1.17,.34,1.78c0,.64-.12,1.25-.35,1.82-.23,.58-.57,1.09-1,1.55s-.94,.82-1.52,1.08-1.22,.4-1.91,.4Zm-2.5-4.87c0,.37,.05,.73,.16,1.07,.11,.35,.27,.66,.48,.93,.21,.27,.48,.49,.79,.65s.68,.24,1.08,.24,.79-.08,1.11-.25c.32-.17,.58-.39,.78-.67s.36-.59,.47-.94,.16-.7,.16-1.06-.05-.72-.16-1.07c-.11-.34-.27-.65-.49-.93-.22-.27-.48-.49-.8-.64s-.67-.23-1.07-.23c-.42,0-.79,.08-1.1,.24s-.57,.38-.78,.66c-.21,.27-.37,.59-.47,.93s-.16,.7-.16,1.06Z"/><path class="cls-3" d="M126.1,116.54v-9.6h4.09c.46,0,.88,.09,1.26,.28s.71,.43,.99,.74,.5,.66,.65,1.05c.15,.39,.23,.78,.23,1.19,0,.55-.13,1.07-.38,1.57-.26,.5-.61,.9-1.07,1.21-.46,.31-.99,.47-1.61,.47h-1.95v3.09h-2.22Zm2.22-5.03h1.81c.17,0,.33-.05,.47-.15,.14-.1,.26-.25,.35-.45s.14-.44,.14-.73-.05-.54-.16-.74c-.1-.19-.23-.33-.39-.43-.16-.09-.32-.13-.49-.13h-1.73v2.62Z"/><path class="cls-3" d="M141.65,114.59v1.95h-6.74v-9.6h6.62v1.95h-4.41v1.87h3.78v1.8h-3.78v2.04h4.53Z"/><path class="cls-3" d="M143.38,116.54v-9.6h4.33c.45,0,.87,.09,1.25,.28,.38,.18,.71,.43,.99,.74s.5,.66,.66,1.05c.16,.39,.24,.78,.24,1.18s-.06,.77-.19,1.13c-.13,.36-.31,.68-.54,.96-.23,.28-.51,.52-.84,.7l2.11,3.57h-2.45l-1.84-3.09h-1.5v3.09h-2.22Zm2.22-5.03h2.03c.18,0,.34-.06,.48-.17s.25-.27,.34-.47c.09-.2,.13-.43,.13-.69s-.05-.49-.16-.68c-.1-.19-.23-.34-.38-.45-.15-.11-.32-.16-.49-.16h-1.96v2.62Z"/><path class="cls-3" d="M156.34,116.54v-9.6h4.09c.46,0,.88,.09,1.26,.28s.71,.43,.99,.74,.5,.66,.65,1.05c.15,.39,.23,.78,.23,1.19,0,.55-.13,1.07-.38,1.57-.26,.5-.61,.9-1.07,1.21-.46,.31-.99,.47-1.61,.47h-1.95v3.09h-2.22Zm2.22-5.03h1.81c.17,0,.33-.05,.47-.15,.14-.1,.26-.25,.35-.45s.14-.44,.14-.73-.05-.54-.16-.74c-.1-.19-.23-.33-.39-.43-.16-.09-.32-.13-.49-.13h-1.73v2.62Z"/><path class="cls-3" d="M165.13,116.54v-9.6h4.33c.45,0,.87,.09,1.25,.28,.38,.18,.71,.43,.99,.74s.5,.66,.66,1.05c.16,.39,.24,.78,.24,1.18s-.06,.77-.19,1.13c-.13,.36-.31,.68-.54,.96-.23,.28-.51,.52-.84,.7l2.11,3.57h-2.45l-1.84-3.09h-1.5v3.09h-2.22Zm2.22-5.03h2.03c.18,0,.34-.06,.48-.17s.25-.27,.34-.47c.09-.2,.13-.43,.13-.69s-.05-.49-.16-.68c-.1-.19-.23-.34-.38-.45-.15-.11-.32-.16-.49-.16h-1.96v2.62Z"/><path class="cls-3" d="M181.31,114.59v1.95h-6.74v-9.6h6.62v1.95h-4.41v1.87h3.78v1.8h-3.78v2.04h4.53Z"/><path class="cls-3" d="M184.43,106.94l2.26,7,2.23-7h2.34l-3.49,9.6h-2.18l-3.51-9.6h2.35Z"/><path class="cls-3" d="M192.53,116.54v-9.6h2.22v9.6h-2.22Z"/><path class="cls-3" d="M203.71,114.59v1.95h-6.74v-9.6h6.62v1.95h-4.41v1.87h3.78v1.8h-3.78v2.04h4.53Z"/><path class="cls-3" d="M208.6,106.96h2.04l1,3.07,1-3.07h2.05l-1.64,4.46,.97,2.55,2.41-7.03h2.42l-3.74,9.6h-1.92l-1.55-3.76-1.54,3.76h-1.93l-3.73-9.6h2.41l2.42,7.03,.95-2.55-1.61-4.46Z"/></g></g></svg>